<?xml version="1.0" encoding="UTF-8"?>
<svg xmlns="http://www.w3.org/2000/svg" xmlns:xlink="http://www.w3.org/1999/xlink" width="480pt" height="480pt" viewBox="0 0 480 480" version="1.1">
<g id="surface577929">
<path style=" stroke:none;fill-rule:nonzero;fill:rgb(94.509804%,94.509804%,94.509804%);fill-opacity:1;" d="M 240 480 C 107.453125 480 0 372.546875 0 240 C 0 107.453125 107.453125 0 240 0 C 372.546875 0 480 107.453125 480 240 C 480 372.546875 372.546875 480 240 480 Z M 240 480 "/>
<path style=" stroke:none;fill-rule:nonzero;fill:rgb(25.882353%,64.705882%,96.078431%);fill-opacity:1;" d="M 102.003906 164.105469 L 164.101562 102.003906 L 378.003906 315.902344 L 315.90625 378.003906 Z M 102.003906 164.105469 "/>
<path style=" stroke:none;fill-rule:nonzero;fill:rgb(8.235294%,39.607843%,75.294118%);fill-opacity:1;" d="M 186.023438 186.023438 L 176.265625 176.265625 L 207.320312 145.210938 L 217.078125 154.96875 Z M 186.023438 186.023438 "/>
<path style=" stroke:none;fill-rule:nonzero;fill:rgb(8.235294%,39.607843%,75.294118%);fill-opacity:1;" d="M 304.332031 242.230469 L 314.09375 251.992188 L 296.84375 269.246094 L 287.078125 259.480469 Z M 304.332031 242.230469 "/>
<path style=" stroke:none;fill-rule:nonzero;fill:rgb(8.235294%,39.607843%,75.294118%);fill-opacity:1;" d="M 186.824219 124.722656 L 196.582031 134.480469 L 179.328125 151.730469 L 169.570312 141.972656 Z M 186.824219 124.722656 "/>
<path style=" stroke:none;fill-rule:nonzero;fill:rgb(8.235294%,39.607843%,75.294118%);fill-opacity:1;" d="M 345.9375 283.835938 L 355.695312 293.59375 L 338.441406 310.84375 L 328.683594 301.085938 Z M 345.9375 283.835938 "/>
<path style=" stroke:none;fill-rule:nonzero;fill:rgb(8.235294%,39.607843%,75.294118%);fill-opacity:1;" d="M 228.222656 166.121094 L 237.980469 175.878906 L 220.730469 193.132812 L 210.972656 183.375 Z M 228.222656 166.121094 "/>
<path style=" stroke:none;fill-rule:nonzero;fill:rgb(8.235294%,39.607843%,75.294118%);fill-opacity:1;" d="M 293.976562 293.996094 L 325.035156 262.945312 L 334.792969 272.703125 L 303.734375 303.753906 Z M 293.976562 293.996094 "/>
<path style=" stroke:none;fill-rule:nonzero;fill:rgb(89.803922%,45.098039%,45.098039%);fill-opacity:1;" d="M 368.222656 136.964844 L 343.03125 111.78125 C 339.203125 107.941406 332.964844 107.941406 329.128906 111.78125 L 317.273438 123.648438 L 356.363281 162.730469 L 368.222656 150.875 C 372.058594 147.03125 372.058594 140.8125 368.222656 136.964844 "/>
<path style=" stroke:none;fill-rule:nonzero;fill:rgb(100%,59.607843%,0%);fill-opacity:1;" d="M 122.058594 318.851562 L 297.734375 143.171875 L 336.824219 182.261719 L 161.152344 357.941406 Z M 122.058594 318.851562 "/>
<path style=" stroke:none;fill-rule:nonzero;fill:rgb(69.019608%,74.509804%,77.254902%);fill-opacity:1;" d="M 356.332031 162.722656 L 336.792969 182.273438 L 297.691406 143.195312 L 317.226562 123.644531 Z M 356.332031 162.722656 "/>
<path style=" stroke:none;fill-rule:nonzero;fill:rgb(100%,75.686275%,2.745098%);fill-opacity:1;" d="M 122.046875 318.859375 L 108.902344 371.101562 L 161.140625 357.949219 Z M 122.046875 318.859375 "/>
<path style=" stroke:none;fill-rule:nonzero;fill:rgb(21.568627%,27.843137%,30.980392%);fill-opacity:1;" d="M 115.5625 344.6875 L 108.902344 371.101562 L 135.308594 364.441406 Z M 115.5625 344.6875 "/>
</g>
</svg>
