<?xml version="1.0" encoding="UTF-8" standalone="no"?>
<!-- Generator: Adobe Illustrator 19.0.0, SVG Export Plug-In . SVG Version: 6.00 Build 0)  -->

<svg
   xmlns:dc="http://purl.org/dc/elements/1.1/"
   xmlns:cc="http://creativecommons.org/ns#"
   xmlns:rdf="http://www.w3.org/1999/02/22-rdf-syntax-ns#"
   xmlns:svg="http://www.w3.org/2000/svg"
   xmlns="http://www.w3.org/2000/svg"
   xmlns:sodipodi="http://sodipodi.sourceforge.net/DTD/sodipodi-0.dtd"
   xmlns:inkscape="http://www.inkscape.org/namespaces/inkscape"
   version="1.1"
   id="Layer_1"
   x="0px"
   y="0px"
   viewBox="0 0 504.126 504.126"
   style="enable-background:new 0 0 504.126 504.126;"
   xml:space="preserve"
   sodipodi:docname="planet-alien.svg"
   inkscape:version="0.92.4 (5da689c313, 2019-01-14)"><metadata
   id="metadata115"><rdf:RDF><cc:Work
       rdf:about=""><dc:format>image/svg+xml</dc:format><dc:type
         rdf:resource="http://purl.org/dc/dcmitype/StillImage" /><dc:title></dc:title></cc:Work></rdf:RDF></metadata><defs
   id="defs113" /><sodipodi:namedview
   pagecolor="#ffffff"
   bordercolor="#666666"
   borderopacity="1"
   objecttolerance="10"
   gridtolerance="10"
   guidetolerance="10"
   inkscape:pageopacity="0"
   inkscape:pageshadow="2"
   inkscape:window-width="1366"
   inkscape:window-height="704"
   id="namedview111"
   showgrid="false"
   inkscape:zoom="0.66204559"
   inkscape:cx="224.78216"
   inkscape:cy="191.20639"
   inkscape:window-x="0"
   inkscape:window-y="27"
   inkscape:window-maximized="1"
   inkscape:current-layer="Layer_1" />
<g
   id="g284"
   transform="matrix(0.25115749,-0.29029376,0.29029376,0.25115749,-59.981141,97.848912)"><path
     id="path208"
     d="M 301.176,45.176 C 301.176,20.226 280.949,0 256,0 c -24.949,0 -45.176,20.226 -45.176,45.176 0,16.718 9.09,31.306 22.588,39.118 v 36.176 h 45.176 V 84.295 c 13.499,-7.813 22.588,-22.4 22.588,-39.119 z"
     style="fill:#4b925e"
     inkscape:connector-curvature="0" /><path
     id="path210"
     d="m 256,0 v 120.471 h 22.588 V 84.295 C 292.087,76.482 301.176,61.897 301.176,45.177 301.176,20.226 280.949,0 256,0 Z"
     style="fill:#32623f"
     inkscape:connector-curvature="0" /><path
     id="path212"
     d="m 406.588,331.294 v 82.824 c 0,12.475 -10.114,22.588 -22.588,22.588 -12.474,0 -22.588,-10.114 -22.588,-22.588 0,0 0,-184.267 0,-203.294 0,-60.235 -47.194,-105.412 -105.412,-105.412 -58.218,0 -105.412,45.176 -105.412,105.412 0,19.027 0,203.294 0,203.294 0,12.475 -10.114,22.588 -22.588,22.588 -12.474,0 -22.588,-10.114 -22.588,-22.588 V 331.294 H 60.235 v 82.824 c 0,53.972 43.91,97.882 97.882,97.882 h 195.765 c 53.972,0 97.882,-43.91 97.882,-97.882 v -82.824 z"
     style="fill:#91dc5a"
     inkscape:connector-curvature="0" /><path
     id="path214"
     d="m 406.588,331.294 v 82.824 c 0,12.475 -10.114,22.588 -22.588,22.588 -12.474,0 -22.588,-10.114 -22.588,-22.588 0,0 0,-184.267 0,-203.294 0,-60.235 -47.194,-105.412 -105.412,-105.412 V 512 h 97.882 c 53.972,0 97.882,-43.91 97.882,-97.882 v -82.824 z"
     style="fill:#64c37d"
     inkscape:connector-curvature="0" /><path
     id="path216"
     d="m 256,150.588 c -37.365,0 -67.765,30.399 -67.765,67.765 0,37.366 30.399,67.765 67.765,67.765 37.366,0 67.765,-30.399 67.765,-67.765 0,-37.366 -30.4,-67.765 -67.765,-67.765 z"
     style="fill:#ffffff"
     inkscape:connector-curvature="0" /><circle
     id="circle218"
     r="22.587999"
     cy="218.353"
     cx="256"
     style="fill:#1e2e3b" /><path
     id="path220"
     d="m 210.824,331.294 c 0,24.949 20.227,45.176 45.176,45.176 v 0 c 24.949,0 45.176,-20.227 45.176,-45.176 z"
     style="fill:#3c5d76"
     inkscape:connector-curvature="0" /><path
     id="path222"
     d="m 256,331.294 v 45.176 c 24.949,0 45.176,-20.227 45.176,-45.176 z"
     style="fill:#1e2e3b"
     inkscape:connector-curvature="0" /><g
     id="g224">
</g><g
     id="g226">
</g><g
     id="g228">
</g><g
     id="g230">
</g><g
     id="g232">
</g><g
     id="g234">
</g><g
     id="g236">
</g><g
     id="g238">
</g><g
     id="g240">
</g><g
     id="g242">
</g><g
     id="g244">
</g><g
     id="g246">
</g><g
     id="g248">
</g><g
     id="g250">
</g><g
     id="g252">
</g></g><circle
   style="fill:#663500;stroke-width:0.84119993"
   cx="292.09045"
   cy="292.08969"
   r="212.03455"
   id="circle2" />
<g
   id="g8"
   transform="matrix(0.84119996,0,0,0.84119996,80.05507,80.055149)">
	<path
   style="fill:#8e4d00"
   d="m 430.31,430.308 c -98.446,98.438 -258.048,98.414 -356.494,-0.016 -98.399,-98.43 -98.406,-258.016 0,-356.47"
   id="path4"
   inkscape:connector-curvature="0" />
	<circle
   style="fill:#8e4d00"
   cx="247.526"
   cy="256.638"
   r="215.72501"
   id="circle6" />
</g>
<path
   style="fill:#a85e04;stroke-width:0.84119993"
   d="M 288.28066,477.38754 C 188.05505,477.38081 106.80607,396.13183 106.79934,295.89949 106.80607,195.6865 188.06767,114.44424 288.28066,114.4249"
   id="path10"
   inkscape:connector-curvature="0" />
<circle
   style="fill:#a35902;stroke-width:0.84119993"
   cx="288.28067"
   cy="295.93903"
   r="150.0869"
   id="circle12" />
<path
   style="fill:#ad6d05;stroke-width:0.84119993"
   d="m 182.13721,402.03537 c -58.60724,-58.6207 -58.60136,-153.64517 0.007,-212.26587 58.6207,-58.60136 153.64517,-58.60136 212.25914,0"
   id="path14"
   inkscape:connector-curvature="0" />
<circle
   style="fill:#ffce00;stroke-width:0.84119993"
   cx="288.28067"
   cy="295.93903"
   r="112.42469"
   id="circle16" />
<path
   id="SVGCleanerId_0"
   style="fill:#ffb600;stroke-width:0.84119993"
   d="m 208.78053,216.40609 c 43.90391,-43.90391 115.08121,-43.90391 158.99269,0 43.90475,43.91064 43.90475,115.09466 0,159.00614"
   inkscape:connector-curvature="0" />
<g
   id="g23"
   transform="matrix(0.84119996,0,0,0.84119996,80.05507,80.055149)">
	<circle
   style="fill:#ffce00"
   cx="247.534"
   cy="256.638"
   r="133.64799"
   id="circle19" />
	<circle
   style="fill:#ffce00"
   cx="247.534"
   cy="256.638"
   r="133.64799"
   id="circle21" />
</g>
<path
   style="fill:#ffb600;stroke-width:0.84119993"
   d="m 355.87949,206.22168 c 14.21291,18.83111 22.74689,42.18786 22.74689,67.59883 8.4e-4,62.09318 -50.33741,112.43142 -112.43058,112.43142 -25.41097,0 -48.76773,-8.53397 -67.60556,-22.74688 20.5278,27.18674 53.00821,44.83175 89.69042,44.83175 62.08645,0 112.43142,-50.33825 112.43142,-112.43142 -8.4e-4,-36.68137 -17.65258,-69.15589 -44.83259,-89.6837 z"
   id="path25"
   inkscape:connector-curvature="0" />
<g
   id="g28"
   transform="matrix(0.84119996,0,0,0.84119996,80.05507,80.055149)">
	<path
   id="SVGCleanerId_0_1_"
   style="fill:#ffb600"
   d="m 153.026,162.091 c 52.192,-52.192 136.806,-52.192 189.007,0 52.193,52.2 52.193,136.822 0,189.023"
   inkscape:connector-curvature="0" />
</g>
<path
   style="fill:#ffa300;stroke-width:0.84119993"
   d="m 400.22755,286.07932 c -0.0463,-0.5636 -0.0925,-1.1331 -0.14553,-1.70259 -0.33143,-3.19404 -0.77558,-6.3805 -1.37788,-9.54846 -0.0799,-0.42396 -0.17918,-0.8412 -0.27171,-1.26601 -0.56949,-2.86933 -1.27862,-5.71847 -2.08029,-8.5407 -0.15225,-0.52995 -0.28516,-1.07337 -0.43742,-1.60333 -0.8412,-2.78269 -1.82204,-5.52584 -2.88868,-8.24964 -0.40378,-1.0473 -0.82858,-2.08702 -1.26517,-3.12086 -1.00691,-2.39237 -2.10047,-4.76455 -3.28656,-7.08963 -0.68895,-1.35181 -1.44434,-2.66408 -2.18628,-3.98897 -0.68222,-1.21217 -1.39808,-2.41172 -2.12656,-3.60454 -1.4906,-2.41845 -3.06112,-4.78391 -4.71745,-7.07702 -0.55687,-0.76885 -1.1129,-1.53687 -1.69585,-2.299 -2.25274,-2.95513 -4.64511,-5.79755 -7.18301,-8.52135 -0.16572,-0.18591 -0.33816,-0.3777 -0.51061,-0.56361 -4.35321,-4.61145 -9.09085,-8.85867 -14.16665,-12.68866 14.21292,18.83111 22.74689,42.18786 22.74689,67.59883 0,31.04954 -12.58267,59.15066 -32.9313,79.49929 l 22.07814,22.08486 c 0.15226,-0.14553 0.28516,-0.31797 0.42396,-0.4635 2.47818,-2.50425 4.83017,-5.09515 7.02991,-7.76596 1.04729,-1.28535 1.98103,-2.66408 2.97533,-3.98897 1.21216,-1.61005 2.45798,-3.20076 3.57173,-4.85709 1.03383,-1.5436 1.94149,-3.17384 2.90214,-4.76455 0.93457,-1.55706 1.91457,-3.09478 2.75661,-4.68465 0.85466,-1.58986 1.58398,-3.25376 2.35873,-4.88316 0.80166,-1.69586 1.64959,-3.37237 2.35872,-5.10188 0.64941,-1.5436 1.1659,-3.14777 1.73624,-4.72418 0.68894,-1.88849 1.41153,-3.7568 1.98102,-5.67221 0.46351,-1.51752 0.80167,-3.09393 1.19956,-4.63838 0.5106,-2.00794 1.06664,-4.00915 1.47798,-6.04318 0.33144,-1.68324 0.52323,-3.41863 0.78148,-5.12879 0.28517,-1.91457 0.64268,-3.82326 0.82858,-5.75129 0.27844,-2.84914 0.3777,-5.75128 0.43742,-8.66688 0.0707,-4.06047 -0.0151,-8.12852 -0.37349,-12.18394 z"
   id="path30"
   inkscape:connector-curvature="0" />
<path
   style="fill:#ffe000;stroke-width:0.84119993"
   d="m 175.85597,295.90622 c 0,-62.09991 50.33152,-112.43142 112.42469,-112.43142"
   id="path32"
   inkscape:connector-curvature="0" />
<g
   id="g40"
   transform="matrix(0.84119996,0,0,0.84119996,80.05507,80.055149)">
	<circle
   style="fill:#ffeb76"
   cx="165.157"
   cy="276.70801"
   r="15.573"
   id="circle34" />
	<circle
   style="fill:#ffeb76"
   cx="187.535"
   cy="226.076"
   r="1.946"
   id="circle36" />
	<circle
   style="fill:#ffeb76"
   cx="241.58701"
   cy="307.36499"
   r="11.193"
   id="circle38" />
</g>
<g
   id="g50"
   transform="matrix(0.84119996,0,0,0.84119996,80.05507,80.055149)">
	<circle
   style="fill:#ffce00"
   cx="275.13501"
   cy="185.194"
   r="17.518"
   id="circle42" />
	<circle
   style="fill:#ffce00"
   cx="288.297"
   cy="243.129"
   r="5.3559999"
   id="circle44" />
	<circle
   style="fill:#ffce00"
   cx="324.767"
   cy="228.05299"
   r="9.7360001"
   id="circle46" />
	<circle
   style="fill:#ffce00"
   cx="348.11401"
   cy="272.78601"
   r="5.8369999"
   id="circle48" />
</g>
<g
   id="g78"
   transform="matrix(0.84119996,0,0,0.84119996,80.05507,80.055149)">
	<circle
   style="fill:#f4ebc1"
   cx="149.033"
   cy="79.431"
   r="17.723"
   id="circle52" />
	<circle
   style="fill:#f4ebc1"
   cx="221.894"
   cy="64.331001"
   r="2.6229999"
   id="circle54" />
	<circle
   style="fill:#f4ebc1"
   cx="68.287003"
   cy="286.20001"
   r="9.1920004"
   id="circle56" />
	<circle
   style="fill:#f4ebc1"
   cx="464.10999"
   cy="263.22299"
   r="12.477"
   id="circle58" />
	<circle
   style="fill:#f4ebc1"
   cx="426.064"
   cy="370.87701"
   r="3.2850001"
   id="circle60" />
	<ellipse
   style="fill:#f4ebc1"
   cx="328.86301"
   cy="77.139"
   rx="1.969"
   ry="21.662001"
   id="ellipse62" />
	<ellipse
   style="fill:#f4ebc1"
   cx="328.86301"
   cy="77.139"
   rx="21.662001"
   ry="1.969"
   id="ellipse64" />
	
		<ellipse
   transform="matrix(0.7083,-0.7059,0.7059,0.7083,-231.6354,182.7071)"
   style="fill:#f4ebc1"
   cx="105.26"
   cy="371.63501"
   rx="9.0270004"
   ry="0.81900001"
   id="ellipse66" />
	
		<ellipse
   transform="matrix(0.7083,0.7059,-0.7059,0.7083,293.0587,34.1147)"
   style="fill:#f4ebc1"
   cx="105.25"
   cy="371.66101"
   rx="9.0270004"
   ry="0.81900001"
   id="ellipse68" />
	<ellipse
   style="fill:#f4ebc1"
   cx="306.099"
   cy="445.21201"
   rx="7.3410001"
   ry="0.662"
   id="ellipse70" />
	<ellipse
   style="fill:#f4ebc1"
   cx="306.099"
   cy="445.21201"
   rx="0.662"
   ry="7.3330002"
   id="ellipse72" />
	<path
   style="fill:#f4ebc1"
   d="m 411.925,237.789 c -4.986,0 -9.027,-0.362 -9.027,-0.819 0.008,-0.449 4.049,-0.827 9.043,-0.819 4.97,0 9.019,0.362 9.019,0.819 -0.016,0.456 -4.049,0.826 -9.035,0.819 z"
   id="path74"
   inkscape:connector-curvature="0" />
	<ellipse
   style="fill:#f4ebc1"
   cx="411.92499"
   cy="236.96899"
   rx="0.81900001"
   ry="9.0270004"
   id="ellipse76" />
</g>
<g
   id="g80">
</g>
<g
   id="g82">
</g>
<g
   id="g84">
</g>
<g
   id="g86">
</g>
<g
   id="g88">
</g>
<g
   id="g90">
</g>
<g
   id="g92">
</g>
<g
   id="g94">
</g>
<g
   id="g96">
</g>
<g
   id="g98">
</g>
<g
   id="g100">
</g>
<g
   id="g102">
</g>
<g
   id="g104">
</g>
<g
   id="g106">
</g>
<g
   id="g108">
</g>
</svg>